<svg xmlns="http://www.w3.org/2000/svg" xmlns:xlink="http://www.w3.org/1999/xlink" width="33" height="46" viewBox="0 0 33 46"><defs><path id="op13a" d="M250.63 1196.56v-7.89a7.65 7.65 0 0 1 7.67-7.67 7.65 7.65 0 0 1 7.68 7.67v8.45"/><path id="op13b" d="M273.1 1208.42c0 8.02-6.43 14.58-14.52 14.58a14.46 14.46 0 0 1-14.58-14.44 14.55 14.55 0 1 1 29.1-.14z"/><path id="op13c" d="M263.33 1215.19h-9.7l3.42-8.52h2.79z"/><path id="op13d" d="M262.49 1205.63a4.05 4.05 0 1 1-8.1 0 4.05 4.05 0 0 1 8.1 0z"/></defs><g><g transform="translate(-242 -1179)"><g><use fill="#fff" fill-opacity="0" stroke="#000" stroke-miterlimit="50" stroke-width="3" xlink:href="#op13a"/></g><g><use fill="#fff" fill-opacity="0" stroke="#f38230" stroke-miterlimit="50" stroke-width="3" xlink:href="#op13b"/></g><g><use xlink:href="#op13c"/></g><g><use xlink:href="#op13d"/></g></g></g></svg>