<svg xmlns="http://www.w3.org/2000/svg" xmlns:xlink="http://www.w3.org/1999/xlink" width="92" height="92" viewBox="0 0 92 92"><defs><path id="s5cra" d="M566.7 541.9c-3.4 3.7-7.9 5.5-13.6 5.5-4.9 0-9-1.5-12.4-4.5-4.4-4-6.6-10.1-6.6-18.4 0-6.3 1.7-11.5 5-15.5 3.6-4.4 8.5-6.6 14.8-6.6 5.4 0 9.5 1.4 12.5 4.3s4.6 6.1 4.9 9.7h-5.7c-.6-2.8-1.9-4.9-3.8-6.6-1.9-1.6-4.5-2.4-7.9-2.4-4.1 0-7.5 1.5-10 4.4-2.5 3-3.8 7.5-3.8 13.6 0 5 1.1 9.1 3.4 12.2 2.3 3.1 5.7 4.7 10.3 4.7 4.2 0 7.4-1.6 9.6-4.9 1.2-1.7 2-4 2.6-6.8h5.7c-.6 4.5-2.2 8.3-5 11.3zM553 480a46 46 0 1 0 .01 92.01A46 46 0 0 0 553 480z"/></defs><g><g transform="translate(-507 -480)"><use fill="#f38230" xlink:href="#s5cra"/></g></g></svg>