<svg xmlns="http://www.w3.org/2000/svg" xmlns:xlink="http://www.w3.org/1999/xlink" width="80" height="80" viewBox="0 0 80 80"><defs><path id="vh2ba" d="M176.4 375.83c-8 0-13.14 6.08-13.14 15.56 0 9.57 5.13 15.65 13.13 15.65s13.13-6.08 13.13-15.65c0-9.48-5.13-15.56-13.13-15.56z"/><path id="vh2bb" d="M204.83 408.78c-6.87 0-11.83-3.91-12.18-9.48h1.92c.26 4.61 4.6 7.74 10.43 7.74 5.74 0 9.74-3.21 9.74-7.65 0-3.56-2.35-5.56-8-6.96l-4-.95c-6.26-1.57-9.04-4.09-9.04-8.35 0-5.22 4.87-9.04 11.04-9.04 6.35 0 11.13 3.74 11.3 8.7h-1.82c-.26-4-4.18-6.96-9.48-6.96-5.04 0-9.13 3.04-9.13 7.3 0 3.4 2.43 5.3 7.91 6.7l3.74.95c6.52 1.65 9.4 4.09 9.4 8.61-.1 5.48-4.79 9.4-11.83 9.4zm-28.44 0c-9.22 0-15.04-6.7-15.04-17.39 0-10.6 5.82-17.3 15.04-17.3 9.22 0 15.04 6.7 15.04 17.3 0 10.7-5.82 17.4-15.04 17.4zm-19.22-31.82c-.78 0-1.47-.61-1.47-1.4 0-.78.7-1.47 1.47-1.47.79 0 1.48.6 1.48 1.48 0 .78-.7 1.39-1.48 1.39zm-.87 31.39v-25.22h1.92v25.22zM206.48 352h-42.96A18.6 18.6 0 0 0 145 370.52v42.87c0 10.26 8.35 18.61 18.52 18.61h42.87c10.26 0 18.61-8.35 18.61-18.52v-42.96A18.6 18.6 0 0 0 206.48 352z"/></defs><g><g transform="translate(-145 -352)"><use fill="#f38230" xlink:href="#vh2ba"/></g><g transform="translate(-145 -352)"><use fill="#f38230" xlink:href="#vh2bb"/></g></g></svg>