<svg xmlns="http://www.w3.org/2000/svg" xmlns:xlink="http://www.w3.org/1999/xlink" width="134" height="40" viewBox="0 0 134 40"><defs><path id="1g66a" d="M221.09 47.1a9 9 0 0 1-9.04-8.96 9.02 9.02 0 0 1 9.04-8.97 9 9 0 0 1 9.04 8.97 9 9 0 0 1-9.04 8.97zm0-21.77c-3.51 0-6.73 1.4-9.04 3.66V10.95h-3.88V38.14c0 7.06 5.78 12.8 12.92 12.8S234 45.2 234 38.15c0-7.06-5.78-12.8-12.92-12.8z"/><path id="1g66b" d="M158.62 25.33a12.87 12.87 0 0 0-12.92 12.81v12.4h3.88v-12.4a9.02 9.02 0 0 1 9.04-8.97 9 9 0 0 1 9.04 8.97v12.4h3.88v-12.4c0-7.06-5.78-12.8-12.92-12.8z"/><path id="1g66c" d="M245.54 10.95h-3.88v14.3h-3.26v3.85h3.26v21.34h3.88V29.1h3.22v-3.84h-3.22z"/><path id="1g66d" d="M189.29 47.1a9 9 0 0 1-9.04-8.96 9.02 9.02 0 0 1 9.04-8.97 9 9 0 0 1 9.04 8.97 9.02 9.02 0 0 1-9.04 8.97zm0-21.77a12.87 12.87 0 0 0-12.92 12.81c0 7.06 5.78 12.8 12.92 12.8 3.51 0 6.73-1.38 9.04-3.65v3.15h3.88V37.8a12.88 12.88 0 0 0-12.92-12.48z"/><path id="1g66e" d="M266.1 47.1a9 9 0 0 1-9.04-8.96 9.02 9.02 0 0 1 9.04-8.97 9 9 0 0 1 9.04 8.97 9.02 9.02 0 0 1-9.04 8.97zm0-21.77a12.87 12.87 0 0 0-12.92 12.81c0 7.06 5.79 12.8 12.92 12.8 7.14 0 12.92-5.74 12.92-12.8 0-7.06-5.78-12.8-12.92-12.8z"/></defs><g><g transform="translate(-145 -11)"><use fill="#fff" xlink:href="#1g66a"/></g><g transform="translate(-145 -11)"><use fill="#fff" xlink:href="#1g66b"/></g><g transform="translate(-145 -11)"><use fill="#fff" xlink:href="#1g66c"/></g><g transform="translate(-145 -11)"><use fill="#fff" xlink:href="#1g66d"/></g><g transform="translate(-145 -11)"><use fill="#fff" xlink:href="#1g66e"/></g></g></svg>