<svg xmlns="http://www.w3.org/2000/svg" xmlns:xlink="http://www.w3.org/1999/xlink" width="77" height="80" viewBox="0 0 77 80"><defs><path id="a" d="M892.4 553.6h3.3v10.8h-3.3zm13.5 0h3.3v10.8h-3.3zm13.5 0h3.3v10.8h-3.3zm13.4 0h3.3v10.8h-3.3zm13.5 0h3.3v10.8h-3.3zm-63.3 4h6.4v9.9h9.3v-9.9h4.2v9.9h9.3v-9.9h4.2v9.9h9.3v-9.9h4.2v9.9h9.3v-9.9h4.2v9.9h9.3v-9.9h7v-11H883z"/><path id="b" d="M949.7 495.7h-3.3V491h3.3zm-13.5 0h-3.3V491h3.3zm-13.5 0h-3.3V491h3.3zm-13.5 0h-3.3V491h3.3zm-13.5 0h-3.3V491h3.3zm64 0h-7V488h-9.3v7.7h-4.2V488h-9.3v7.7h-4.2V488h-9.3v7.7h-4.2V488h-9.3v7.7h-4.2V488h-9.3v7.7H883v47.9h76.7z"/></defs><use fill="#f38230" xlink:href="#a" transform="translate(-883 -488)"/><use fill="#f38230" xlink:href="#b" transform="translate(-883 -488)"/></svg>