<svg xmlns="http://www.w3.org/2000/svg" xmlns:xlink="http://www.w3.org/1999/xlink" width="71" height="80" viewBox="0 0 71 80"><defs><path id="a" d="M572.92 375.76h-39c-1.38 0-2.08.7-2.08 2v31.25c0 3.92 2.7 6.53 6.61 6.62h.96v8.35c0 3.31 2.53 5.92 5.75 6.01a6.02 6.02 0 0 0 6.26-6v-8.36h4.1v8.44a6.01 6.01 0 0 0 4.17 5.66 5.99 5.99 0 0 0 7.75-6v-8.19h1.04c3.83 0 6.53-2.7 6.53-6.44v-31.42c0-1.22-.7-1.92-2.09-1.92z"/><path id="b" d="M588.85 392.21v-9.66c0-3.4-2.7-6-6.1-5.92-3.3 0-5.82 2.7-5.91 6.1v17.85a5.96 5.96 0 1 0 11.92.52c.1-3.14.1-6.01.1-8.89z"/><path id="c" d="M529.92 382.9c0-2.61-1.13-4.61-3.48-5.74-3.74-1.74-8.35.95-8.44 5.05v18.7c0 3.58 3.4 6.36 6.96 5.67a5.96 5.96 0 0 0 4.96-6.1v-8.61c.1-3.05.1-6 0-8.97z"/><path id="d" d="M561.6 367.06c-1.12 0-2-.96-2-2.09s.88-2 2-2c1.14 0 2 .96 2 2.09.1 1.04-.86 2-2 2zm-15.49 0c-1.13 0-2-.96-2-2.09s.87-2 2.1-2c1.12 0 2 .96 2 2.09 0 1.04-.96 2-2.1 2zm21.42-8.62c-.61-.43-1.22-.78-1.74-1.22v-.08c.78-1.13 1.48-2.27 2.26-3.4a2.4 2.4 0 0 0-.96-3.48c-.17-.09-.26-.17-.43-.26h-1.14c-.95.35-1.48 1.04-2 1.83-.7 1.13-1.48 2.26-2.17 3.3a26.12 26.12 0 0 0-15.5 0 76.62 76.62 0 0 1-2.26-3.39c-.6-.7-1.22-1.4-2.18-1.74h-1.04c-.44.26-.96.44-1.3.87-.79.78-.79 2-.18 2.96.7 1.13 1.48 2.26 2.26 3.4-.17.08-.26.17-.43.26a19.3 19.3 0 0 0-5.49 5.13c-2 2.87-3.22 6-3.3 9.49 0 1.22.7 2 1.82 2h39.43c1.14 0 1.92-.7 1.83-1.83a22.64 22.64 0 0 0-.43-3.4c-.96-4.34-3.49-7.74-7.05-10.44z"/></defs><use fill="#f38230" xlink:href="#a" transform="translate(-518 -350)"/><use fill="#f38230" xlink:href="#b" transform="translate(-518 -350)"/><use fill="#f38230" xlink:href="#c" transform="translate(-518 -350)"/><use fill="#f38230" xlink:href="#d" transform="translate(-518 -350)"/></svg>