<svg xmlns="http://www.w3.org/2000/svg" xmlns:xlink="http://www.w3.org/1999/xlink" width="93" height="93" viewBox="0 0 93 93"><defs><path id="a" d="M934 431c-16.5 0-30-13.3-30-29.7s13.5-29.7 30-29.7c6.3 0 12.1 1.9 16.9 5.2-.8.9-1.2 2.1-1.2 3.4 0 3 2.5 5.5 5.5 5.5 1.3 0 2.5-.5 3.5-1.2 3.3 4.8 5.3 10.6 5.3 16.8 0 16.4-13.5 29.7-30 29.7zm26-48.1a5.55 5.55 0 0 0-4.8-8.2 6 6 0 0 0-2.7.7c-5.2-3.7-11.6-5.9-18.5-5.9-17.6 0-32 14.2-32 31.7 0 17.6 14.4 31.8 32 31.8s32-14.2 32-31.7c0-6.8-2.2-13.2-6-18.4z"/><path id="b" d="M921.6 401.3c0-6.8 5.55-12.3 12.4-12.3 6.85 0 12.4 5.5 12.4 12.3 0 6.8-5.55 12.3-12.4 12.3-6.85 0-12.4-5.5-12.4-12.3z"/><path id="c" d="M894.3 369.9v7.8c0 .8.6 1.4 1.4 1.4.8 0 1.4-.6 1.4-1.4v-7.8c0-.8-.6-1.4-1.4-1.4-.7-.1-1.4.6-1.4 1.4z"/><path id="d" d="M912.8 369.9v4.5c.9-.7 1.9-1.4 2.8-2v-2.5c0-.8-.6-1.4-1.4-1.4-.7-.1-1.4.6-1.4 1.4z"/><path id="e" d="M885.8 386.9l-2.1-22.8 6.4-12.8h9.2v4.3h11.4v-4.3h9.2l6.4 12.8-.3 4a35.68 35.68 0 0 1 10.4-.8l.6-3.8-14.2-23.5h-35.6L873 363.5l6.4 37.7h9.2l-1.4-9.2h6.4l1.4 9.2h4.5c0-5.1 1.2-9.9 3.2-14.2h-16.9z"/></defs><use fill="#f38230" xlink:href="#a" transform="translate(-873 -340)"/><use fill="#f38230" xlink:href="#b" transform="translate(-873 -340)"/><use fill="#f38230" xlink:href="#c" transform="translate(-873 -340)"/><use fill="#f38230" xlink:href="#d" transform="translate(-873 -340)"/><use fill="#f38230" xlink:href="#e" transform="translate(-873 -340)"/></svg>