<svg xmlns="http://www.w3.org/2000/svg" xmlns:xlink="http://www.w3.org/1999/xlink" width="93" height="94" viewBox="0 0 93 94"><defs><path id="jgada" d="M149.2 525.9c-.2.3-.6.4-.9.4-.4 0-.7-.1-.9-.4-.3-.3-.4-.6-.4-1 0-.3.1-.7.4-.9.2-.3.6-.4.9-.4.4 0 .7.1.9.4.3.2.4.6.4.9 0 .4-.1.7-.4 1z"/><path id="jgadb" d="M166.9 526h-2.4l-8.7-13.6c-.2-.3-.4-.7-.5-1.1h-.3c.1.8.1 1.6.1 2.3V526h-2v-17h2.6l8.5 13.3c.4.6.6.9.7 1.1-.1-.8-.1-1.7-.1-2.5V509h2v17z"/><path id="jgadc" d="M219.4 546.3h-4.6l-1.1 5.3h4.9l-.5 1.9h-4.8l-1.5 7h-2.2l1.5-7h-4.4l-1.5 7H203l1.5-7h-4.6l.3-1.9h4.7l1.1-5.3h-5l.4-1.9h4.9l1.5-7.1h2.2l-1.5 7.1h4.5l1.5-7.1h2.2l-1.5 7.1h4.6zm-22 15.2c-2.2 1.1-4.6 1.6-7 1.5-3.2.1-6.4-1.1-8.6-3.5-2.2-2.5-3.4-5.8-3.2-9.1-.2-3.6 1.2-7.1 3.6-9.8 2.4-2.5 5.8-3.8 9.3-3.7 2-.1 4 .3 5.9 1v3.2c-1.8-1-3.9-1.5-6-1.5-2.6-.1-5.2 1-7 2.9-1.9 2.1-2.8 4.9-2.7 7.8-.1 2.7.8 5.3 2.5 7.3a8.6 8.6 0 0 0 6.6 2.7c2.3.1 4.6-.5 6.6-1.7zM199 518c-17.7 0-32 14.3-32 32s14.3 32 32 32 32-14.3 32-32-14.3-32-32-32z"/><path id="jgadd" d="M207 551.6h4.5l1.1-5.3h-4.4z"/><path id="jgade" d="M164 551.2a31.1 31.1 0 0 1-24-30.2c0-17.1 13.9-31 31-31 15.1 0 27.7 10.8 30.4 25.1.7 0 1.4.1 2.1.2a33 33 0 1 0-39.3 38c-.1-.7-.1-1.4-.2-2.1z"/><path id="jgadf" d="M175.4 524.1h-2.1v-5.9h6.1v-1.8h-6.1v-5.7h6.6V509h-8.6v17h2.3c.5-.6 1.2-1.3 1.8-1.9z"/><path id="jgadg" d="M186.7 517.2c.7-.2 1.3-.5 2-.7v-5.7h4.9V509h-11.8v1.8h4.9z"/></defs><g><g transform="translate(-138 -488)"><g><use fill="#f38230" xlink:href="#jgada"/></g><g><use fill="#f38230" xlink:href="#jgadb"/></g><g><g><use fill="#f38230" xlink:href="#jgadc"/></g><g><use fill="#f38230" xlink:href="#jgadd"/></g></g><g><use fill="#f38230" xlink:href="#jgade"/></g><g><use fill="#f38230" xlink:href="#jgadf"/></g><g><use fill="#f38230" xlink:href="#jgadg"/></g></g></g></svg>