<svg xmlns="http://www.w3.org/2000/svg" xmlns:xlink="http://www.w3.org/1999/xlink" width="37" height="36" viewBox="0 0 37 36"><defs><path id="fbs5a" d="M273.18 907c-8.3 0-15 6.7-15 15v1.7c0 5.2-4.2 9.3-9.3 9.3h-1.7"/><path id="fbs5b" d="M249.48 939.3c8.3 0 15-6.7 15-15v-1.7c0-5.2 4.2-9.3 9.3-9.3h1.7"/><path id="fbs5c" d="M248.28 923.2h26.1"/><path id="fbs5d" d="M244.58 926.9a5.25 5.25 0 0 1 0-7.5c2.1-2.1 5.4-2.1 7.5 0 2.1 2.1 2.1 5.4 0 7.5a5.25 5.25 0 0 1-7.5 0"/><path id="fbs5e" d="M270.58 926.9c2.1 2.1 5.4 2.1 7.5 0 2.1-2.1 2.1-5.4 0-7.5a5.25 5.25 0 0 0-7.5 0c-2.1 2.1-2 5.5 0 7.5"/></defs><g><g transform="translate(-243 -905)"><g><use fill="#fff" fill-opacity="0" stroke="#f38230" stroke-linecap="round" stroke-linejoin="round" stroke-miterlimit="50" stroke-width="3" xlink:href="#fbs5a"/></g><g><use fill="#fff" fill-opacity="0" stroke="#f38230" stroke-linecap="round" stroke-linejoin="round" stroke-miterlimit="50" stroke-width="3" xlink:href="#fbs5b"/></g><g><use fill="#fff" fill-opacity="0" stroke="#fff" stroke-linecap="round" stroke-linejoin="round" stroke-miterlimit="50" stroke-width="7.8" xlink:href="#fbs5c"/></g><g><use fill="#fff" fill-opacity="0" stroke="#161615" stroke-linecap="round" stroke-linejoin="round" stroke-miterlimit="50" stroke-width="3" xlink:href="#fbs5c"/></g><g><use fill="#161615" xlink:href="#fbs5d"/></g><g><use fill="#161615" xlink:href="#fbs5e"/></g></g></g></svg>