<svg xmlns="http://www.w3.org/2000/svg" xmlns:xlink="http://www.w3.org/1999/xlink" width="38" height="40" viewBox="0 0 38 40"><defs><path id="nrifa" d="M266.8 1110.7c0-2.9 2.4-5.3 5.3-5.3s5.3 2.4 5.3 5.3-2.4 5.3-5.3 5.3-5.3-2.4-5.3-5.3"/><path id="nrifb" d="M259.8 1135.3l-4.9-4.9 4.9-4.9"/><path id="nrifc" d="M272.2 1112.7v11.7c0 3.3-2.7 6-6 6h-9.4"/><path id="nrifd" d="M250.6 1123.6c0 2.9-2.4 5.3-5.3 5.3s-5.3-2.4-5.3-5.3 2.4-5.3 5.3-5.3 5.3 2.4 5.3 5.3"/><path id="nrife" d="M257.7 1099l4.9 4.9-4.9 4.9"/><path id="nriff" d="M245.3 1121.6v-11.7c0-3.3 2.7-6 6-6h9.4"/></defs><g><g transform="translate(-240 -1097)"><g><use fill="#161615" xlink:href="#nrifa"/></g><g><use fill="#fff" fill-opacity="0" stroke="#161615" stroke-linecap="round" stroke-miterlimit="50" stroke-width="3" xlink:href="#nrifb"/></g><g><use fill="#fff" fill-opacity="0" stroke="#161615" stroke-linecap="round" stroke-linejoin="round" stroke-miterlimit="50" stroke-width="3" xlink:href="#nrifc"/></g><g><use fill="#f38230" xlink:href="#nrifd"/></g><g><use fill="#fff" fill-opacity="0" stroke="#f38230" stroke-linecap="round" stroke-miterlimit="50" stroke-width="3" xlink:href="#nrife"/></g><g><use fill="#fff" fill-opacity="0" stroke="#f38230" stroke-linecap="round" stroke-linejoin="round" stroke-miterlimit="50" stroke-width="3" xlink:href="#nriff"/></g></g></g></svg>